<?xml version="1.0" encoding="utf-8"?>
<!-- Uploaded to: SVG Repo, www.svgrepo.com, Generator: SVG Repo Mixer Tools -->
<svg width="800px" height="800px" viewBox="0 0 1024 1024" class="icon"  version="1.1" xmlns="http://www.w3.org/2000/svg"><path d="M916.668 273.393l-66.711 66.711-168.533-168.532 66.712-66.712c52.639-52.639 132.855-57.328 179.24-10.942 23.311 23.309 33.783 55.149 31.698 87.511-1.802 32.647-16.207 65.765-42.406 91.964z" fill="#FF3B30" /><path d="M762.348 163.22c-2.195 0-4.427-0.49-6.534-1.518-7.41-3.613-10.494-12.555-6.877-19.972 21.34-43.746 70.902-63.624 110.446-44.341 7.41 3.618 10.494 12.558 6.876 19.973-3.623 7.408-12.551 10.484-19.976 6.879-24.737-12.065-56.382 1.652-70.494 30.588-2.589 5.305-7.906 8.391-13.441 8.391z" fill="#FFFFFF" /><path d="M143.188 708.155L697.96 155.654l168.981 168.981L304.964 883.58M161.098 920.034l-97.765 38.158 34.206-101.717z" fill="#152B3C" /><path d="M240.709 708.755l-62.541 0.002-34.98-0.602-45.649 148.32 63.556 63.558 143.869-36.453 4.897-45.216 0.025-60.384-70.581 9.731z" fill="#FCB814" /><path d="M861.579 62.897c7.356 4.411 14.285 9.667 20.559 15.942 23.308 23.308 33.781 55.149 31.695 87.509-1.8 32.649-16.206 65.764-42.405 91.965l-36.552 36.552 30.159 30.159 51.631-51.631c26.2-26.201 40.605-59.316 42.407-91.965 2.087-32.359-8.388-64.201-31.696-87.509-18.021-18.023-41.167-28.236-65.798-31.022z" fill="" /><path d="M686.755 164.588l91.469 117.335c16.291 20.899 14.49 50.655-4.205 69.435L309.977 817.552l-5.013 66.028 561.977-558.945L697.96 155.654l-11.205 8.934z" fill="" /><path d="M269.107 864.233l-129.423 34.388 21.411 21.412 143.869-36.453 4.897-45.216 0.025-60.384-15.239 2.101z" fill="" /><path d="M317.969 621.444a14.888 14.888 0 0 1-10.561-4.375c-5.834-5.831-5.834-15.29 0-21.121L641.67 261.687c5.836-5.834 15.287-5.834 21.121 0 5.834 5.831 5.834 15.29 0 21.121L328.529 617.07a14.887 14.887 0 0 1-10.56 4.374z" fill="#FFFFFF" /></svg>